<?xml version="1.0" encoding="utf-8"?>
<!-- Generator: Adobe Illustrator 27.5.0, SVG Export Plug-In . SVG Version: 6.00 Build 0)  -->
<svg version="1.1" id="Goal_2_" xmlns="http://www.w3.org/2000/svg" xmlns:xlink="http://www.w3.org/1999/xlink" x="0px" y="0px"
	 viewBox="0 0 1200 1200" style="enable-background:new 0 0 1200 1200;" xml:space="preserve">
<g id="Background">
	<rect id="Background_1" style="fill:#E4E4E4;" width="1200" height="1200"/>
	<circle id="Background_2" style="fill:#F3F4F6;" cx="600" cy="600" r="399"/>
</g>
<g id="Goal">
	<path style="fill:#256478;" d="M554.065,1103.557h5.587v18.664c-0.461,0.153-1.124,0.325-1.987,0.518
		c-0.864,0.192-1.863,0.385-2.995,0.576c-1.133,0.192-2.371,0.354-3.715,0.49c-1.344,0.134-2.707,0.201-4.089,0.201
		c-2.804,0-5.358-0.461-7.661-1.383c-2.304-0.921-4.282-2.265-5.933-4.031c-1.652-1.767-2.929-3.936-3.83-6.51
		c-0.903-2.572-1.353-5.529-1.353-8.869c0-3.342,0.508-6.308,1.526-8.899c1.017-2.593,2.39-4.772,4.118-6.538
		c1.728-1.766,3.753-3.11,6.077-4.032c2.323-0.921,4.81-1.383,7.46-1.383c1.805,0,3.407,0.116,4.809,0.347
		c1.402,0.229,2.601,0.499,3.6,0.807c0.998,0.307,1.814,0.613,2.448,0.921s1.065,0.539,1.296,0.691l-1.785,4.666
		c-1.115-0.729-2.592-1.335-4.435-1.815c-1.844-0.479-3.725-0.721-5.645-0.721c-2.036,0-3.888,0.366-5.558,1.095
		c-1.671,0.731-3.092,1.786-4.262,3.169c-1.172,1.383-2.083,3.063-2.736,5.039c-0.653,1.979-0.979,4.196-0.979,6.654
		c0,2.381,0.278,4.55,0.835,6.508c0.557,1.959,1.401,3.639,2.535,5.039c1.132,1.404,2.534,2.487,4.205,3.256
		c1.67,0.769,3.638,1.152,5.904,1.152c1.613,0,2.985-0.087,4.119-0.26c1.132-0.173,1.948-0.336,2.448-0.489V1103.557z"/>
	<path style="fill:#256478;" d="M566.794,1103.213c0-3.418,0.508-6.432,1.526-9.044c1.017-2.61,2.399-4.789,4.147-6.538
		c1.747-1.746,3.782-3.061,6.106-3.945c2.323-0.883,4.789-1.325,7.402-1.325c2.572,0,5.001,0.442,7.286,1.325
		c2.284,0.885,4.291,2.199,6.019,3.945c1.728,1.749,3.101,3.928,4.119,6.538c1.018,2.612,1.525,5.626,1.525,9.044
		c0,3.417-0.508,6.431-1.525,9.042c-1.018,2.613-2.391,4.79-4.119,6.539c-1.728,1.747-3.735,3.062-6.019,3.944
		c-2.285,0.884-4.714,1.325-7.286,1.325c-2.612,0-5.079-0.441-7.402-1.325c-2.324-0.883-4.359-2.197-6.106-3.944
		c-1.748-1.749-3.13-3.926-4.147-6.539C567.302,1109.644,566.794,1106.63,566.794,1103.213z M572.669,1103.213
		c0,2.418,0.307,4.617,0.922,6.595c0.613,1.979,1.487,3.657,2.62,5.039c1.133,1.383,2.515,2.449,4.148,3.197
		c1.632,0.75,3.465,1.124,5.5,1.124c2.035,0,3.86-0.374,5.472-1.124c1.613-0.748,2.985-1.814,4.119-3.197
		c1.132-1.382,2.006-3.061,2.621-5.039c0.614-1.978,0.922-4.177,0.922-6.595c0-2.419-0.308-4.617-0.922-6.596
		c-0.614-1.979-1.489-3.658-2.621-5.04c-1.133-1.382-2.505-2.448-4.119-3.197c-1.612-0.749-3.437-1.124-5.472-1.124
		c-2.036,0-3.869,0.375-5.5,1.124c-1.633,0.749-3.015,1.815-4.148,3.197c-1.133,1.382-2.007,3.062-2.62,5.04
		C572.976,1098.596,572.669,1100.794,572.669,1103.213z"/>
	<path style="fill:#256478;" d="M638.794,1123.2c-0.654-1.729-1.268-3.428-1.844-5.098c-0.575-1.671-1.172-3.37-1.784-5.098h-18.087
		l-3.63,10.195h-5.818c1.537-4.224,2.977-8.131,4.321-11.723c1.344-3.589,2.659-6.998,3.945-10.225
		c1.287-3.225,2.564-6.307,3.83-9.243c1.268-2.938,2.592-5.847,3.975-8.728h5.126c1.383,2.881,2.708,5.789,3.975,8.728
		c1.269,2.937,2.543,6.019,3.83,9.243c1.287,3.227,2.602,6.636,3.947,10.225c1.343,3.592,2.783,7.499,4.319,11.723H638.794z
		 M633.552,1108.396c-1.229-3.342-2.448-6.576-3.657-9.705c-1.209-3.13-2.468-6.136-3.773-9.016c-1.344,2.88-2.62,5.886-3.83,9.016
		c-1.209,3.129-2.41,6.363-3.6,9.705H633.552z"/>
	<path style="fill:#256478;" d="M674.332,1118.36v4.84h-24.018v-39.918h5.587v35.078H674.332z"/>
</g>
<g id="Goal_1_">
	<g>
		<path style="fill-rule:evenodd;clip-rule:evenodd;fill:#FF313A;" d="M717.057,813.481c184.794,0,335.532-150.74,335.532-335.603
			c0-184.793-150.738-335.533-335.532-335.533c-184.797,0-335.537,150.74-335.537,335.533
			C381.52,662.741,532.26,813.481,717.057,813.481L717.057,813.481z"/>
		<path style="fill-rule:evenodd;clip-rule:evenodd;fill:#FDFDFD;" d="M717.057,750.119c149.925,0,272.238-122.245,272.238-272.241
			c0-149.924-122.313-272.238-272.238-272.238c-149.927,0-272.242,122.314-272.242,272.238
			C444.814,627.874,567.129,750.119,717.057,750.119L717.057,750.119z"/>
		<path style="fill-rule:evenodd;clip-rule:evenodd;fill:#FF313A;" d="M717.057,690.013c116.818,0,212.063-95.315,212.063-212.134
			c0-116.818-95.245-212.066-212.063-212.066c-116.82,0-212.067,95.248-212.067,212.066
			C504.989,594.698,600.237,690.013,717.057,690.013L717.057,690.013z"/>
		<path style="fill-rule:evenodd;clip-rule:evenodd;fill:#FDFDFD;" d="M717.057,623.734c80.32,0,145.784-65.533,145.784-145.856
			c0-80.253-65.464-145.786-145.784-145.786c-80.323,0-145.789,65.532-145.789,145.786
			C571.268,558.201,636.733,623.734,717.057,623.734L717.057,623.734z"/>
	</g>
	<g>
		<path style="fill-rule:evenodd;clip-rule:evenodd;fill:#34465C;" d="M377.179,523.128h481.73c9.838,0,17.842,8.075,17.842,17.844
			v329.087H359.338V540.972C359.338,531.203,367.342,523.128,377.179,523.128L377.179,523.128z"/>
		<path style="fill-rule:evenodd;clip-rule:evenodd;fill:#34404F;" d="M279.22,930.301h338.858h338.857
			c1.833,0,1.494-1.494-0.813-3.255l-72.792-55.899c-2.308-1.766-5.698-3.192-7.53-3.192H618.078H360.355
			c-1.899,0-5.291,1.427-7.598,3.192l-72.725,55.899C277.728,928.807,277.319,930.301,279.22,930.301L279.22,930.301z"/>
		<path style="fill-rule:evenodd;clip-rule:evenodd;fill:#34465C;" d="M281.865,926.161c224.142,0,448.284,0,672.356,0
			c5.088,0,5.632,4.207,1.088,9.296l-9.092,10.379c-4.547,5.089-12.348,9.229-17.502,9.229c-207.116,0-414.229,0-621.343,0
			c-5.087,0-12.957-4.14-17.435-9.229l-9.158-10.379C276.301,930.368,276.777,926.161,281.865,926.161L281.865,926.161z"/>
		<polygon style="fill-rule:evenodd;clip-rule:evenodd;fill:#6E7F8F;" points="565.231,899.096 593.791,899.096 642.363,899.096 
			670.856,899.096 686.731,916.53 626.421,916.53 609.663,916.53 549.355,916.53 		"/>
		<rect x="375.619" y="545.379" style="fill-rule:evenodd;clip-rule:evenodd;fill:#FFE8AE;" width="484.914" height="307.042"/>
	</g>
	<g>
		<path style="fill-rule:evenodd;clip-rule:evenodd;fill:#6BC06F;" d="M559.87,456.917l261.59-109.696
			c2.443-1.018,5.292,0.136,6.308,2.646l49.795,118.72c1.017,2.44-0.134,5.291-2.577,6.307L613.396,584.592
			c-2.443,1.016-5.291-0.138-6.379-2.581l-49.724-118.717C556.206,460.785,557.429,457.934,559.87,456.917L559.87,456.917z"/>
		<path style="fill-rule:evenodd;clip-rule:evenodd;fill:#A8DAAA;" d="M573.44,462.004l242.119-101.487
			c2.102-0.882,4.543,0.136,5.427,2.239l42.604,101.624c0.881,2.103-0.069,4.546-2.172,5.427L619.299,571.364
			c-2.103,0.878-4.547-0.139-5.428-2.24l-42.67-101.693C570.319,465.328,571.335,462.888,573.44,462.004L573.44,462.004z"/>
		<path style="fill-rule:evenodd;clip-rule:evenodd;fill:#6BC06F;" d="M610.138,455.358l87.448-36.635l87.512-36.701
			c0.206,0.679,0.476,1.357,0.746,2.036c7.599,18.18,25.984,27.746,41.043,21.437c0.949-0.407,1.833-0.814,2.714-1.289
			l10.041,23.947c-0.95,0.271-1.901,0.61-2.849,0.949c-15.062,6.309-21.098,26.185-13.5,44.299c0.338,0.679,0.61,1.357,0.947,2.037
			l-87.443,36.633l-87.513,36.702c-0.205-0.68-0.476-1.425-0.746-2.103c-7.598-18.113-25.984-27.681-41.045-21.371
			c-0.949,0.339-1.829,0.814-2.713,1.29l-10.04-23.948c0.952-0.271,1.898-0.61,2.85-0.95c15.06-6.377,21.097-26.188,13.5-44.3
			C610.751,456.714,610.48,456.035,610.138,455.358L610.138,455.358z"/>
		<path style="fill-rule:evenodd;clip-rule:evenodd;fill:#FDFDFD;" d="M726.756,506.983l14.313-5.972l-2.374-5.765
			c6.717-6.104,9.499-15.535,5.971-23.946c-1.968-4.682-5.36-8.211-9.77-10.38c-5.768-2.917-13.092-3.323-19.809-0.542
			c-2.85,1.221-6.04,0.066-7.123-2.579c-1.085-2.647,0.271-5.766,3.121-6.988c2.848-1.22,6.174,0,7.257,2.648l16.012-6.716
			c-3.46-8.344-12.142-13.025-21.233-12.483l-2.849-6.716l-14.317,6.038l2.715,6.445c-7.463,6.038-10.311,15.942-6.715,24.557
			c4.545,10.856,17.57,15.605,29.374,10.651c2.849-1.221,6.173,0,7.259,2.579c1.086,2.646-0.408,5.764-3.257,6.986
			c-2.849,1.152-6.036,0.068-7.192-2.646l-16.075,6.715c3.729,9.026,12.89,13.705,22.386,12.689L726.756,506.983z"/>
	</g>
	<g>
		<rect x="729.674" y="734.584" style="fill-rule:evenodd;clip-rule:evenodd;fill:#44B9CA;" width="211.388" height="271.969"/>
		<path style="fill-rule:evenodd;clip-rule:evenodd;fill:#F16858;" d="M942.42,734.584H835.365H728.383
			c-4.273,0-7.732-3.462-7.732-7.665v-11.397c0-4.205,3.459-7.667,7.732-7.667h77.204c-0.136-1.084-0.204-2.102-0.204-3.255
			c0-16.555,13.431-29.918,29.982-29.918c16.555,0,29.986,13.363,29.986,29.918c0,1.152-0.067,2.171-0.203,3.255h77.271
			c4.202,0,7.665,3.462,7.665,7.667v11.397C950.085,731.122,946.622,734.584,942.42,734.584L942.42,734.584z M835.365,693.065
			c-6.374,0-11.531,5.155-11.531,11.534c0,6.375,5.157,11.598,11.531,11.598c6.379,0,11.533-5.223,11.533-11.598
			C846.898,698.221,841.744,693.065,835.365,693.065L835.365,693.065z"/>
		<path style="fill-rule:evenodd;clip-rule:evenodd;fill:#C02729;" d="M942.42,734.584H835.365H728.383
			c-4.273,0-7.732-3.462-7.732-7.665v-0.068h229.435v0.068C950.085,731.122,946.622,734.584,942.42,734.584L942.42,734.584z"/>
		<g>
			<path style="fill-rule:evenodd;clip-rule:evenodd;fill:#CFFFFF;" d="M904.361,756.834H766.375
				c-10.651,0-19.404,8.752-19.404,19.47v188.529c0,10.718,8.753,19.467,19.404,19.467h137.986c10.649,0,19.468-8.749,19.468-19.467
				V776.304C923.829,765.586,915.011,756.834,904.361,756.834L904.361,756.834z"/>
			<rect x="771.327" y="798.354" style="fill-rule:evenodd;clip-rule:evenodd;fill:#666666;" width="128.082" height="10.65"/>
			<rect x="771.327" y="839.465" style="fill-rule:evenodd;clip-rule:evenodd;fill:#666666;" width="128.082" height="10.718"/>
			<rect x="771.327" y="880.641" style="fill-rule:evenodd;clip-rule:evenodd;fill:#666666;" width="128.082" height="10.653"/>
			<rect x="771.327" y="921.822" style="fill-rule:evenodd;clip-rule:evenodd;fill:#666666;" width="128.082" height="10.65"/>
		</g>
		<polygon style="fill-rule:evenodd;clip-rule:evenodd;fill:#3796A4;" points="906.529,1006.553 941.061,972.023 906.529,972.43 		
			"/>
	</g>
	<g>
		<polygon style="fill-rule:evenodd;clip-rule:evenodd;fill:#1B7D9A;" points="275.285,186.306 409.131,243.63 413.338,335.484 
			343.938,395.794 210.158,338.469 279.49,278.16 		"/>
		<polygon style="fill-rule:evenodd;clip-rule:evenodd;fill:#145C71;" points="279.151,267.237 722.55,474.826 710.881,479.101 
			271.486,285.147 		"/>
	</g>
	<g>
		<path style="fill-rule:evenodd;clip-rule:evenodd;fill:#C02729;" d="M282.882,891.634v-151.42c0-6.24,5.088-11.33,11.262-11.33
			h109.221c6.174,0,11.262,5.09,11.262,11.33v151.42c0,6.239-5.088,11.329-11.262,11.329H294.144
			C287.971,902.963,282.882,897.873,282.882,891.634L282.882,891.634z"/>
		<path style="fill-rule:evenodd;clip-rule:evenodd;fill:#F16858;" d="M275.217,885.459V733.836c0-6.172,5.02-11.259,11.192-11.259
			h108.272c6.106,0,11.194,5.087,11.194,11.259v151.623c0,6.175-5.088,11.194-11.194,11.194H286.409
			C280.237,896.653,275.217,891.634,275.217,885.459L275.217,885.459z"/>
		<path style="fill-rule:evenodd;clip-rule:evenodd;fill:#FEFEFE;" d="M278.608,765.383c0-3.119,2.442-5.563,5.563-5.563
			c3.053,0,5.563,2.443,5.563,5.563c0,3.053-2.51,5.563-5.563,5.563C281.118,770.946,278.608,768.435,278.608,765.383
			L278.608,765.383z M278.608,876.029c0-3.122,2.51-5.563,5.563-5.563c3.053,0,5.563,2.44,5.563,5.563
			c0,3.053-2.51,5.565-5.563,5.565C281.118,881.594,278.608,879.082,278.608,876.029L278.608,876.029z M278.608,853.914
			c0-3.121,2.51-5.63,5.563-5.63c3.053,0,5.563,2.509,5.563,5.63c0,3.053-2.51,5.563-5.563,5.563
			C281.118,859.477,278.608,856.967,278.608,853.914L278.608,853.914z M278.608,831.798c0-3.12,2.51-5.63,5.563-5.63
			c3.053,0,5.563,2.51,5.563,5.63c0,3.053-2.51,5.561-5.563,5.561C281.118,837.359,278.608,834.851,278.608,831.798L278.608,831.798
			z M278.608,809.613c0-3.052,2.51-5.561,5.563-5.561c3.053,0,5.563,2.51,5.563,5.561c0,3.122-2.51,5.632-5.563,5.632
			C281.118,815.245,278.608,812.735,278.608,809.613L278.608,809.613z M278.608,787.5c0-3.054,2.51-5.565,5.563-5.565
			c3.053,0,5.563,2.512,5.563,5.565c0,3.119-2.51,5.562-5.563,5.562C281.118,793.062,278.608,790.619,278.608,787.5L278.608,787.5z
			 M278.608,743.268c0-3.121,2.442-5.631,5.563-5.631c3.053,0,5.563,2.51,5.563,5.631c0,3.053-2.51,5.562-5.563,5.562
			C281.05,748.829,278.608,746.32,278.608,743.268L278.608,743.268z"/>
		<path style="fill-rule:evenodd;clip-rule:evenodd;fill:#BBBDBF;" d="M265.312,875.824L265.312,875.824
			c0-2.236,1.832-4.137,4.137-4.137h11.669c2.239,0,4.138,1.9,4.138,4.137l0,0c0,2.308-1.899,4.208-4.138,4.208h-11.669
			C267.144,880.032,265.312,878.132,265.312,875.824L265.312,875.824z M265.312,743.063L265.312,743.063
			c0-2.306,1.832-4.139,4.137-4.139h11.669c2.239,0,4.138,1.833,4.138,4.139l0,0c0,2.307-1.899,4.207-4.138,4.207h-11.669
			C267.144,747.271,265.312,745.37,265.312,743.063L265.312,743.063z M265.312,765.181L265.312,765.181
			c0-2.308,1.832-4.141,4.137-4.141h11.669c2.239,0,4.138,1.833,4.138,4.141l0,0c0,2.308-1.899,4.204-4.138,4.204h-11.669
			C267.144,769.385,265.312,767.488,265.312,765.181L265.312,765.181z M265.312,787.363L265.312,787.363
			c0-2.307,1.832-4.205,4.137-4.205h11.669c2.239,0,4.138,1.898,4.138,4.205l0,0c0,2.238-1.899,4.138-4.138,4.138h-11.669
			C267.144,791.501,265.312,789.602,265.312,787.363L265.312,787.363z M265.312,809.477L265.312,809.477
			c0-2.307,1.832-4.204,4.137-4.204h11.669c2.239,0,4.138,1.898,4.138,4.204l0,0c0,2.309-1.899,4.14-4.138,4.14h-11.669
			C267.144,813.617,265.312,811.786,265.312,809.477L265.312,809.477z M265.312,831.596L265.312,831.596
			c0-2.308,1.832-4.209,4.137-4.209h11.669c2.239,0,4.138,1.901,4.138,4.209l0,0c0,2.306-1.899,4.139-4.138,4.139h-11.669
			C267.144,835.734,265.312,833.901,265.312,831.596L265.312,831.596z M265.312,853.711L265.312,853.711
			c0-2.307,1.832-4.139,4.137-4.139h11.669c2.239,0,4.138,1.832,4.138,4.139l0,0c0,2.307-1.899,4.205-4.138,4.205h-11.669
			C267.144,857.916,265.312,856.018,265.312,853.711L265.312,853.711z"/>
		<path style="fill-rule:evenodd;clip-rule:evenodd;fill:#C02729;" d="M307.779,744.014h70.147c3.12,0,5.698,2.576,5.698,5.699
			v25.303c0,3.189-2.578,5.766-5.698,5.766h-70.147c-3.188,0-5.766-2.576-5.766-5.766v-25.303
			C302.013,746.59,304.591,744.014,307.779,744.014L307.779,744.014z"/>
	</g>
	<g>
		<path style="fill-rule:evenodd;clip-rule:evenodd;fill:#92CADA;" d="M181.734,951.33V799.912c0-6.24,5.088-11.327,11.262-11.327
			h109.154c6.241,0,11.329,5.087,11.329,11.327V951.33c0,6.243-5.088,11.331-11.329,11.331H192.996
			C186.822,962.661,181.734,957.573,181.734,951.33L181.734,951.33z"/>
		<path style="fill-rule:evenodd;clip-rule:evenodd;fill:#43ACC4;" d="M174.068,945.158V793.469c0-6.106,5.02-11.193,11.194-11.193
			h108.203c6.174,0,11.262,5.088,11.262,11.193v151.689c0,6.172-5.087,11.192-11.262,11.192H185.262
			C179.088,956.351,174.068,951.33,174.068,945.158L174.068,945.158z"/>
		<path style="fill-rule:evenodd;clip-rule:evenodd;fill:#F7D33D;" d="M188.856,953.84V784.854c0-1.425,1.153-2.578,2.578-2.578
			h24.559c1.424,0,2.577,1.153,2.577,2.578V953.84c0,1.358-1.153,2.511-2.577,2.511h-24.559
			C190.01,956.351,188.856,955.197,188.856,953.84L188.856,953.84z"/>
		<polygon style="fill-rule:evenodd;clip-rule:evenodd;fill:#C02729;" points="248.895,956.351 272.367,956.351 272.367,980.096 
			260.834,968.63 248.895,980.503 		"/>
	</g>
	<g>
		<g>
			<path style="fill:#ADD477;" d="M285.256,743.063c-2.306,1.289-5.224,0.475-6.513-1.765c-1.288-2.307-0.475-5.225,1.832-6.51
				l43.485-50.406c-0.678-2.104-1.018-4.41-1.018-6.717c0-12.415,10.039-22.455,22.455-22.455c5.768,0,11.058,2.24,15.061,5.836
				l96.874-69.198c-1.153-2.713-1.831-5.766-1.831-8.886c0-12.415,10.04-22.455,22.454-22.455c12.414,0,22.455,10.04,22.455,22.455
				c0,0.746-0.068,1.492-0.136,2.239l92.465,32.969c4.003-6.31,11.058-10.513,19.062-10.513c6.243,0,11.873,2.509,15.943,6.578
				l49.184-31.544c1.355-0.883,2.985-0.951,4.411-0.339l0,0l88.665,36.972c4.07-5.766,10.787-9.566,18.385-9.566
				c5.021,0,9.634,1.629,13.363,4.411l239.339-210.777c0.679-0.679,1.763-1.696,2.646-1.832c0.882,3.527,1.628,7.055,2.308,10.65
				L808.164,621.359c1.762,3.188,2.781,6.92,2.781,10.855c0,12.415-10.04,22.454-22.455,22.454
				c-12.415,0-22.455-10.039-22.455-22.454c0-1.424,0.137-2.714,0.406-4.069l-86.357-36.024l-47.08,30.121
				c0.88,2.442,1.354,5.087,1.354,7.869c0,12.348-10.041,22.455-22.456,22.455c-12.347,0-22.452-10.107-22.452-22.455
				c0-1.018,0.066-1.966,0.203-2.917l-92.195-32.903c-3.934,6.649-11.125,11.128-19.401,11.128c-5.767,0-11.058-2.241-15.06-5.836
				l-96.875,69.198c1.153,2.713,1.832,5.764,1.832,8.885c0,12.415-10.108,22.454-22.455,22.454c-6.648,0-12.618-2.848-16.756-7.461
				L285.256,743.063z"/>
			<path style="fill-rule:evenodd;clip-rule:evenodd;fill:#FDFDFD;" d="M345.498,694.288c9.09,0,16.553-7.462,16.553-16.622
				c0-9.157-7.463-16.619-16.553-16.619c-9.158,0-16.621,7.462-16.621,16.619C328.877,686.826,336.34,694.288,345.498,694.288
				L345.498,694.288z"/>
			<path style="fill-rule:evenodd;clip-rule:evenodd;fill:#FDFDFD;" d="M478.057,599.583c9.158,0,16.621-7.463,16.621-16.62
				c0-9.16-7.463-16.619-16.621-16.619c-9.159,0-16.621,7.459-16.621,16.619C461.435,592.12,468.897,599.583,478.057,599.583
				L478.057,599.583z"/>
			<path style="fill-rule:evenodd;clip-rule:evenodd;fill:#FDFDFD;" d="M611.902,646.663c9.16,0,16.623-7.462,16.623-16.553
				c0-9.157-7.463-16.62-16.623-16.62c-9.088,0-16.551,7.463-16.551,16.62C595.351,639.201,602.815,646.663,611.902,646.663
				L611.902,646.663z"/>
			<path style="fill-rule:evenodd;clip-rule:evenodd;fill:#FDFDFD;" d="M788.49,648.834c9.157,0,16.619-7.461,16.619-16.62
				c0-9.157-7.462-16.62-16.619-16.62c-9.158,0-16.554,7.463-16.554,16.62C771.936,641.373,779.332,648.834,788.49,648.834
				L788.49,648.834z"/>
		</g>
		<g>
			<rect x="453.838" y="623.734" style="fill-rule:evenodd;clip-rule:evenodd;fill:#43ACC4;" width="48.438" height="228.686"/>
			<rect x="589.517" y="667.285" style="fill-rule:evenodd;clip-rule:evenodd;fill:#F16858;" width="44.842" height="185.136"/>
		</g>
	</g>
	<g>
		<path style="fill-rule:evenodd;clip-rule:evenodd;fill:#ADD477;" d="M218.977,416.824c62.82-23.54,132.83,8.343,156.303,71.165
			c23.539,62.885-8.345,132.829-71.165,156.368c-62.886,23.472-132.829-8.344-156.369-71.23
			C124.272,510.306,156.159,440.296,218.977,416.824L218.977,416.824z M231.867,451.354c43.757-16.349,92.533,5.835,108.882,49.591
			c16.35,43.757-5.833,92.465-49.59,108.881c-43.756,16.352-92.465-5.834-108.883-49.589
			C165.927,516.478,188.111,467.702,231.867,451.354L231.867,451.354z"/>
		<path style="fill-rule:evenodd;clip-rule:evenodd;fill:#FFFFFF;" d="M232.207,451.219l-0.34,0.135
			c-43.755,16.348-65.94,65.124-49.591,108.883c5.02,13.363,13.026,24.693,22.998,33.579l-30.46,21.846
			c-11.532-11.737-20.894-26.05-27.067-42.536c-23.269-62.275,7.87-131.609,69.604-155.692L232.207,451.219z"/>
		<path style="fill-rule:evenodd;clip-rule:evenodd;fill:#ADD477;" d="M215.857,562.338h6.648l15.468-54.269v-5.903h-27.204v6.039
			h20.42L215.857,562.338z M243.943,547.754c0,9.227,4.544,15.196,13.771,15.196c9.226,0,13.839-5.969,13.839-15.196V516.75
			c0-9.225-4.614-15.193-13.839-15.193c-9.227,0-13.771,5.968-13.771,15.193V547.754z M250.523,516.342
			c0-5.492,2.374-8.749,7.191-8.749c4.885,0,7.123,3.258,7.123,8.749v31.819c0,5.426-2.238,8.684-7.123,8.684
			c-4.816,0-7.191-3.258-7.191-8.684V516.342z M286.139,501.827c-5.834,0-8.616,4.004-8.616,9.702v19.061
			c0,5.834,2.782,9.702,8.616,9.702c5.834,0,8.615-3.868,8.615-9.702v-19.061C294.754,505.831,291.973,501.827,286.139,501.827
			L286.139,501.827z M310.56,502.166l-23.742,60.172h4.07l23.676-60.172H310.56z M286.139,505.831c2.985,0,4.275,2.239,4.275,5.493
			v19.608c0,3.253-1.29,5.357-4.275,5.357c-3.12,0-4.274-2.104-4.274-5.357v-19.608
			C281.865,508.069,283.019,505.831,286.139,505.831L286.139,505.831z M315.718,524.35c-5.836,0-8.617,3.865-8.617,9.633v18.927
			c0,5.833,2.781,9.701,8.617,9.701c5.9,0,8.614-3.868,8.614-9.701v-18.927C324.331,528.215,321.618,524.35,315.718,524.35
			L315.718,524.35z M315.718,528.351c2.983,0,4.272,2.104,4.272,5.361v19.536c0,3.256-1.288,5.495-4.272,5.495
			c-2.986,0-4.275-2.238-4.275-5.495v-19.536C311.443,530.455,312.732,528.351,315.718,528.351L315.718,528.351z"/>
	</g>
</g>
</svg>
