<?xml version="1.0" encoding="utf-8"?>
<!-- Generator: Adobe Illustrator 27.5.0, SVG Export Plug-In . SVG Version: 6.00 Build 0)  -->
<svg version="1.1" id="Layer_1" xmlns="http://www.w3.org/2000/svg" xmlns:xlink="http://www.w3.org/1999/xlink" x="0px" y="0px"
	 viewBox="0 0 4000 4000" style="enable-background:new 0 0 4000 4000;" xml:space="preserve">
<g>
	<g>
		<rect style="fill:#FFFFFF;" width="4000" height="4000"/>
	</g>
	<g>
		<path style="fill:#ECF3FE;" d="M981.199,1477.986c332.427-419.802,959.319-651.211,1518.022-433.651
			c645.233,251.254,1062.407,1047.922,855.167,1665.907c-183.679,547.724-842.398,908.972-1125.219,747.082
			c-216.377-123.855-133.526-508.583-355.978-596.807c-243.868-96.719-455.422,321.234-744.69,249.028
			c-271.449-67.758-417.56-518.781-425.537-837.248C692.422,1851.523,920.335,1554.847,981.199,1477.986z"/>
		<g>
			<path style="fill:#444444;" d="M3111.298,2221.307c-5.435,0-10.905-0.638-16.326-1.928c-18.179-4.326-33.585-15.473-43.38-31.386
				l-448.441-728.534c-9.796-15.914-12.808-34.689-8.481-52.868s15.473-33.585,31.386-43.38l370.836-228.264
				c15.914-9.795,34.688-12.808,52.868-8.481c18.179,4.326,33.584,15.472,43.379,31.386l448.442,728.534
				c9.796,15.914,12.808,34.689,8.481,52.868s-15.473,33.584-31.386,43.38l-370.836,228.264
				C3136.671,2217.772,3124.091,2221.307,3111.298,2221.307z M3033.456,1137.425c-10.438,0-20.7,2.882-29.813,8.492
				l-370.836,228.264c-26.802,16.498-35.185,51.725-18.688,78.527l448.441,728.534c7.992,12.983,20.562,22.077,35.394,25.607
				c14.832,3.528,30.15,1.072,43.134-6.92l370.836-228.265c12.983-7.991,22.077-20.561,25.607-35.392
				c3.529-14.832,1.071-30.15-6.92-43.134l-448.442-728.534c-7.992-12.983-20.561-22.078-35.393-25.607
				C3042.355,1137.945,3037.889,1137.425,3033.456,1137.425z"/>
			<path style="fill:#444444;" d="M1366.964,3424.399c-18.036,0.001-35.697-5.229-51.14-15.336
				c-20.946-13.712-35.299-34.758-40.416-59.265L963.982,1858.089c-10.561-50.588,22.003-100.337,72.592-110.899l1148.586-239.792
				l1.455,6.967l-1.455-6.967c24.507-5.115,49.539-0.383,70.485,13.328c20.946,13.711,35.3,34.758,40.416,59.264l311.426,1491.709
				c10.56,50.588-22.006,100.338-72.593,110.9l-1148.587,239.791C1379.869,3423.735,1373.392,3424.399,1366.964,3424.399z
				 M2204.478,1519.628c-5.453,0-10.944,0.563-16.406,1.704l-1148.587,239.792c-42.906,8.957-70.524,51.15-61.567,94.056
				l311.426,1491.71c7.818,37.447,40.96,63.251,77.791,63.253c5.367,0,10.808-0.548,16.266-1.687l1148.587-239.791
				c42.904-8.958,70.523-51.152,61.568-94.059l-311.426-1491.708c-4.34-20.784-16.513-38.635-34.278-50.263
				C2234.755,1524.063,2219.773,1519.628,2204.478,1519.628z"/>
			<g>
				<path style="fill:#3B82F4;" d="M2595.718,3139.311l-1161.41,166.957c-47.346,6.806-91.245-26.058-98.051-73.403
					l-216.833-1508.364c-6.806-47.346,26.058-91.244,73.403-98.051l1161.41-166.957c47.346-6.806,91.244,26.058,98.051,73.403
					l216.833,1508.364C2675.928,3088.606,2643.064,3132.505,2595.718,3139.311z"/>
				<path style="fill:#B3CEF6;" d="M2431.32,2478.49c-1.688,0.455-3.417,0.807-5.176,1.064l-1014.97,145.907
					c-11.43,1.641-22.816-1.263-32.059-8.188c-9.246-6.92-15.241-17.025-16.886-28.454l-94.526-657.542
					c-1.641-11.43,1.263-22.816,8.188-32.059c6.916-9.245,17.015-15.213,28.454-16.886l1014.97-145.907
					c11.43-1.641,22.816,1.263,32.059,8.188c9.246,6.92,15.241,17.025,16.886,28.454l94.526,657.542
					c1.641,11.43-1.263,22.816-8.187,32.063C2448.745,2470.492,2440.607,2475.989,2431.32,2478.49z M2422.555,2454.588
					c4.76-0.657,8.969-3.184,11.858-7.032c2.884-3.851,4.094-8.597,3.406-13.358l-94.526-657.542
					c-0.683-4.762-3.181-8.974-7.032-11.858c-3.855-2.883-8.597-4.094-13.358-3.406l-1014.97,145.907
					c-4.779,0.653-8.971,3.176-11.858,7.032c-2.883,3.855-4.094,8.597-3.406,13.358l94.526,657.542
					c0.683,4.762,3.181,8.974,7.032,11.858c3.855,2.883,8.598,4.094,13.358,3.406L2422.555,2454.588z"/>
				
					<rect x="1438.808" y="2076.73" transform="matrix(0.9898 -0.1423 0.1423 0.9898 -304.4082 228.5123)" style="fill:#B3CEF6;" width="13.596" height="332.037"/>
				
					<rect x="1408.395" y="2142.565" transform="matrix(0.9898 -0.1423 0.1423 0.9898 -304.4144 228.5176)" style="fill:#B3CEF6;" width="74.422" height="200.367"/>
				
					<rect x="1564.799" y="1957.406" transform="matrix(0.9898 -0.1423 0.1423 0.9898 -286.1478 245.2252)" style="fill:#B3CEF6;" width="13.596" height="332.037"/>
				
					<rect x="1534.386" y="2023.24" transform="matrix(0.9898 -0.1423 0.1423 0.9898 -286.151 245.2284)" style="fill:#B3CEF6;" width="74.422" height="200.367"/>
				
					<rect x="1717.773" y="2036.518" transform="matrix(0.9898 -0.1423 0.1423 0.9898 -294.3207 267.6874)" style="fill:#B3CEF6;" width="13.596" height="310.569"/>
				
					<rect x="1684.102" y="2102.586" transform="matrix(0.9898 -0.1423 0.1423 0.9898 -291.1346 266.9993)" style="fill:#B3CEF6;" width="74.422" height="133.101"/>
				
					<rect x="1868.126" y="2081.469" transform="matrix(0.9898 -0.1423 0.1423 0.9898 -299.9394 289.6067)" style="fill:#B3CEF6;" width="13.596" height="320.945"/>
				
					<rect x="1833.818" y="2147.582" transform="matrix(0.9898 -0.1423 0.1423 0.9898 -296.1153 288.7673)" style="fill:#B3CEF6;" width="74.422" height="134.532"/>
				
					<rect x="1993.989" y="1955.713" transform="matrix(0.9898 -0.1423 0.1423 0.9898 -281.54 306.2767)" style="fill:#B3CEF6;" width="13.596" height="332.037"/>
				
					<rect x="1963.577" y="2021.548" transform="matrix(0.9898 -0.1423 0.1423 0.9898 -281.5452 306.2833)" style="fill:#B3CEF6;" width="74.422" height="200.367"/>
				
					<rect x="2140.421" y="1888.954" transform="matrix(0.9898 -0.1423 0.1423 0.9898 -283.3174 327.3627)" style="fill:#B3CEF6;" width="13.596" height="511.293"/>
				
					<rect x="2103.441" y="1955.258" transform="matrix(0.9898 -0.1423 0.1423 0.9898 -276.8758 325.9531)" style="fill:#B3CEF6;" width="74.422" height="287.312"/>
				
					<rect x="2274.1" y="1912.735" transform="matrix(0.9898 -0.1423 0.1423 0.9898 -272.5747 345.6959)" style="fill:#B3CEF6;" width="13.596" height="332.037"/>
				
					<rect x="2243.687" y="1978.569" transform="matrix(0.9898 -0.1423 0.1423 0.9898 -272.5797 345.7033)" style="fill:#B3CEF6;" width="74.422" height="200.367"/>
				<path style="fill:#B3CEF6;" d="M1700.934,1723.112l-416.858,59.925c-13.496,1.94-26.01-7.428-27.95-20.924v0
					c-1.94-13.496,7.428-26.01,20.924-27.95l416.858-59.925c13.496-1.94,26.01,7.428,27.95,20.924l0,0
					C1723.798,1708.659,1714.43,1721.172,1700.934,1723.112z"/>
				<path style="fill:#B3CEF6;" d="M1694.198,2694.644l-281.201,40.424c-15.256,2.193-25.846,16.339-23.653,31.595l0,0
					c2.193,15.257,16.339,25.846,31.595,23.653l281.201-40.424c15.256-2.193,25.846-16.339,23.653-31.595v0
					C1723.6,2703.041,1709.454,2692.451,1694.198,2694.644z"/>
				<path style="fill:#B3CEF6;" d="M2475.075,2710.352L1431.02,2860.439c-15.257,2.193-25.846,16.339-23.653,31.595l0,0
					c2.193,15.256,16.339,25.846,31.595,23.653l1044.056-150.087c15.257-2.193,25.846-16.339,23.653-31.595l0,0
					C2504.478,2718.749,2490.332,2708.159,2475.075,2710.352z"/>
				<path style="fill:#B3CEF6;" d="M2493.098,2835.724l-1044.056,150.087c-15.256,2.193-25.846,16.339-23.653,31.595l0,0
					c2.193,15.257,16.339,25.846,31.595,23.653l1044.056-150.087c15.256-2.193,25.846-16.339,23.653-31.595l0,0
					C2522.5,2844.121,2508.354,2833.531,2493.098,2835.724z"/>
				<path style="fill:#B3CEF6;" d="M2511.121,2961.096l-1044.056,150.087c-15.256,2.193-25.846,16.339-23.653,31.595h0
					c2.193,15.256,16.339,25.846,31.595,23.653l1044.056-150.087c15.256-2.193,25.846-16.339,23.653-31.595l0,0
					C2540.523,2969.492,2526.377,2958.903,2511.121,2961.096z"/>
			</g>
			<path style="opacity:0.2;fill:#3A7EC1;" d="M2981.495,1420.317l-1164.869-140.82c-47.485-5.74-90.635,28.101-96.375,75.586
				L1537.363,2867.94c-5.74,47.485,28.101,90.635,75.586,96.375l1164.87,140.82c47.487,5.74,90.635-28.101,96.377-75.586
				l182.888-1512.857C3062.824,1469.207,3028.983,1426.057,2981.495,1420.317z"/>
			<g>
				<path style="fill:#FFFFFF;" d="M2750.694,3068.565l-1164.868-140.82c-47.487-5.741-81.328-48.89-75.588-96.377l182.888-1512.855
					c5.741-47.487,48.89-81.328,96.377-75.588l1164.868,140.82c47.487,5.741,81.328,48.89,75.588,96.376l-182.888,1512.855
					C2841.33,3040.464,2798.181,3074.305,2750.694,3068.565z"/>
				<path style="fill:#E4ECF9;" d="M2763.801,2387.728c-1.75,0-3.51-0.105-5.273-0.318h-0.001l-1017.991-123.064
					c-11.464-1.386-21.703-7.153-28.829-16.239c-7.126-9.087-10.288-20.404-8.902-31.869l79.726-659.5
					c2.861-23.666,24.441-40.589,48.108-37.731l1017.992,123.064c23.665,2.861,40.591,24.442,37.73,48.108l-79.727,659.5
					c-1.386,11.464-7.153,21.702-16.239,28.829C2782.707,2384.536,2773.421,2387.728,2763.801,2387.728z M2761.553,2362.372
					c9.867,1.188,18.853-5.861,20.045-15.721l79.727-659.5c1.191-9.86-5.86-18.853-15.721-20.044l-1017.991-123.064
					c-4.774-0.575-9.492,0.74-13.278,3.709c-3.786,2.969-6.189,7.235-6.767,12.012l-79.726,659.5
					c-0.578,4.776,0.74,9.492,3.709,13.278c2.969,3.785,7.235,6.188,12.011,6.766L2761.553,2362.372L2761.553,2362.372z"/>
				
					<rect x="1866.513" y="1737.737" transform="matrix(0.9928 0.12 -0.12 0.9928 242.0106 -211.0585)" style="fill:#52D1BD;" width="13.596" height="332.037"/>
				
					<rect x="1836.1" y="1803.572" transform="matrix(0.9928 0.12 -0.12 0.9928 242.0181 -211.0642)" style="fill:#52D1BD;" width="74.422" height="200.367"/>
				
					<rect x="2019.2" y="1655.283" transform="matrix(0.9928 0.12 -0.12 0.9928 233.2169 -229.977)" style="fill:#52D1BD;" width="13.596" height="332.037"/>
				
					<rect x="1988.787" y="1721.118" transform="matrix(0.9928 0.12 -0.12 0.9928 233.2283 -229.987)" style="fill:#52D1BD;" width="74.422" height="200.367"/>
				
					<rect x="2149.129" y="1771.824" transform="matrix(0.9928 0.12 -0.12 0.9928 246.8698 -244.8189)" style="fill:#52D1BD;" width="13.596" height="310.569"/>
				
					<rect x="2121.464" y="1837.825" transform="matrix(0.9928 0.12 -0.12 0.9928 244.1575 -245.3098)" style="fill:#52D1BD;" width="74.422" height="133.101"/>
				
					<rect x="2281.269" y="1854.151" transform="matrix(0.9928 0.12 -0.12 0.9928 258.3302 -260.0472)" style="fill:#52D1BD;" width="13.596" height="320.945"/>
				
					<rect x="2254.141" y="1920.183" transform="matrix(0.9928 0.12 -0.12 0.9928 255.0871 -260.6329)" style="fill:#52D1BD;" width="74.422" height="134.532"/>
				
					<rect x="2434.064" y="1765.262" transform="matrix(0.9928 0.12 -0.12 0.9928 249.4158 -278.9718)" style="fill:#52D1BD;" width="13.596" height="332.037"/>
				
					<rect x="2403.651" y="1831.097" transform="matrix(0.9928 0.12 -0.12 0.9928 249.4266 -278.9825)" style="fill:#52D1BD;" width="74.422" height="200.367"/>
				
					<rect x="2569.51" y="1735.797" transform="matrix(0.9928 0.12 -0.12 0.9928 257.6297 -294.8069)" style="fill:#52D1BD;" width="13.596" height="511.293"/>
				
					<rect x="2544.637" y="1801.965" transform="matrix(0.9928 0.12 -0.12 0.9928 252.1634 -295.7958)" style="fill:#52D1BD;" width="74.422" height="287.312"/>
				
					<rect x="2715.713" y="1796.608" transform="matrix(0.9928 0.12 -0.12 0.9928 255.2278 -312.5622)" style="fill:#52D1BD;" width="13.596" height="332.037"/>
				
					<rect x="2685.301" y="1862.443" transform="matrix(0.9928 0.12 -0.12 0.9928 255.2209 -312.5546)" style="fill:#52D1BD;" width="74.422" height="200.367"/>
				<path style="fill:#52D1BD;" d="M2254.989,1468.398l-418.099-50.544c-13.536-1.636-23.183-13.936-21.547-27.472v0
					c1.636-13.536,13.936-23.183,27.473-21.547l418.099,50.544c13.536,1.636,23.183,13.936,21.547,27.473l0,0
					C2280.825,1460.388,2268.525,1470.035,2254.989,1468.398z"/>
				<path style="fill:#E4ECF9;" d="M1995.831,2404.751l-282.038-34.095c-15.302-1.85-29.206,9.055-31.056,24.357l0,0
					c-1.85,15.302,9.055,29.206,24.357,31.056l282.038,34.095c15.302,1.85,29.206-9.055,31.056-24.357l0,0
					C2022.038,2420.505,2011.133,2406.601,1995.831,2404.751z"/>
				<path style="fill:#E4ECF9;" d="M2745.756,2622.991L1698.591,2496.4c-15.302-1.85-29.206,9.055-31.056,24.357l0,0
					c-1.85,15.302,9.055,29.206,24.357,31.056l1047.165,126.591c15.302,1.85,29.206-9.055,31.056-24.357l0,0
					C2771.963,2638.745,2761.058,2624.841,2745.756,2622.991z"/>
				<path style="fill:#E4ECF9;" d="M2730.555,2748.736L1683.39,2622.145c-15.302-1.85-29.206,9.055-31.056,24.357l0,0
					c-1.85,15.302,9.055,29.206,24.357,31.056l1047.165,126.591c15.302,1.85,29.206-9.055,31.056-24.357l0,0
					C2756.762,2764.49,2745.857,2750.586,2730.555,2748.736z"/>
				<path style="fill:#E4ECF9;" d="M2715.354,2874.481L1668.189,2747.89c-15.302-1.85-29.206,9.055-31.056,24.357v0
					c-1.85,15.302,9.055,29.206,24.357,31.056l1047.165,126.591c15.302,1.85,29.206-9.055,31.056-24.357l0,0
					C2741.56,2890.235,2730.656,2876.331,2715.354,2874.481z"/>
			</g>
			<g>
				<polygon style="opacity:0.2;fill:#3A7EC1;" points="2050.079,745.422 2241.965,1062.858 1876.718,1944.423 1800.227,1902.352 
					1704.618,2009.441 905.045,1050.962 1549.717,1278.947 1802.139,705.26 				"/>
				<g>
					<polygon style="fill:#F7CE69;" points="1464.402,1194 1470.16,1188.154 1470.926,1188.998 1660.116,1397.381 
						1472.607,1592.249 939.309,991.124 1126.187,809.284 1222.895,915.805 1133.818,1071.831 1324.46,1301.243 					"/>
				</g>
				<g>
					<polygon style="fill:#F9C067;" points="1470.16,1188.154 1464.402,1194 1324.46,1301.243 1399.025,1083.037 2014.642,623.623 
						2049.956,745.262 1470.926,1188.998 					"/>
				</g>
				<g>
					<polygon style="fill:#E5A755;" points="904.896,1051.095 939.309,991.124 1472.607,1592.249 1530.001,1759.808 					"/>
				</g>
				<g>
					<polygon style="fill:#F9C067;" points="1660.116,1397.381 1749.122,1529.141 1530.001,1759.808 1472.607,1592.249 					"/>
				</g>
				<g>
					<polygon style="fill:#F7CE69;" points="2014.626,623.607 1992.945,639.793 1836.657,756.408 1748.597,822.14 1648.599,896.806 
						1648.555,896.806 1399.014,1083.019 1236.845,891.397 1262.435,873.236 1262.477,873.236 1367.498,798.914 1367.542,798.914 
						1459.896,733.437 1623.953,617.294 1858.211,451.434 					"/>
				</g>
				<g>
					<polygon style="fill:#E5A755;" points="1399.025,1083.037 1324.46,1301.243 1133.818,1071.831 1222.895,915.805 
						1236.829,891.4 					"/>
				</g>
				<g>
					<g>
						<polygon style="fill:#E5A755;" points="1362.802,2192.316 414.85,1987.138 439.552,1905.066 1249.278,2079.469 						"/>
					</g>
					<g>
						<polygon style="fill:#F9C067;" points="1447.161,1869.181 1362.802,2192.316 1249.278,2079.469 1323.242,1804.54 						"/>
					</g>
					<g>
						<polygon style="fill:#F7CE69;" points="525.089,1635.414 1323.242,1804.54 1249.278,2079.469 439.552,1905.066 						"/>
					</g>
					<polygon style="opacity:0.2;fill:#3A7EC1;" points="1447.068,1869.359 1565.1,2210.643 1506.084,2480.276 708.395,2311.994 
						414.661,1987.081 1362.872,2192.244 					"/>
				</g>
				<polygon style="fill:#E5A755;" points="1324.46,1301.243 1564.118,1291.645 1470.926,1188.998 				"/>
			</g>
			<path style="opacity:0.2;fill:#3A7EC1;" d="M3510.369,2086.259l-140.034-558.664l4.361-1.09
				c6.629-1.66,10.656-8.386,8.994-15.015l-20.005-79.813c-1.662-6.629-8.384-10.658-15.013-8.998l-4.363,1.094l-7.007-27.95
				l4.361-1.094c6.631-1.66,10.658-8.382,8.996-15.011l-20.007-79.817c-1.66-6.629-8.384-10.658-15.013-8.994l-4.361,1.09
				l-8.912-35.556c-8.531-34.026-43.028-54.697-77.056-46.164l-422.391,105.876c-34.026,8.528-54.697,43.028-46.168,77.054
				l208.003,829.817c8.529,34.026,43.028,54.697,77.054,46.169l422.393-105.876
				C3498.228,2154.784,3518.9,2120.289,3510.369,2086.259z"/>
			<g>
				<path style="fill:#3B82F4;" d="M3431.881,2147.635l-422.391,105.877c-34.027,8.529-68.526-12.141-77.055-46.168
					l-208.003-829.818c-8.529-34.027,12.141-68.526,46.168-77.055l422.391-105.877c34.027-8.529,68.526,12.141,77.055,46.168
					l208.003,829.818C3486.578,2104.608,3465.908,2139.106,3431.881,2147.635z"/>
				<path style="fill:#FFFFFF;" d="M2950.489,2199.778l-206.568-824.094c-6.161-24.581,8.77-49.502,33.351-55.664l419.057-105.041
					c24.581-6.161,49.502,8.77,55.663,33.351l206.568,824.094c6.161,24.581-8.771,49.502-33.351,55.663l-419.057,105.041
					C2981.572,2239.29,2956.65,2224.358,2950.489,2199.778z"/>
				<path style="fill:#2670DB;" d="M3309.344,1379.049l-20.052,5.026c-6.63,1.662-13.351-2.365-15.013-8.995l-20.006-79.815
					c-1.662-6.63,2.365-13.351,8.995-15.013l20.052-5.026c6.629-1.662,13.351,2.365,15.013,8.995l20.007,79.815
					C3320.001,1370.666,3315.974,1377.387,3309.344,1379.049z"/>
				<path style="fill:#2670DB;" d="M3342.375,1510.824l-20.052,5.026c-6.63,1.662-13.351-2.365-15.013-8.995l-20.007-79.815
					c-1.662-6.63,2.365-13.351,8.995-15.013l20.052-5.026c6.63-1.662,13.351,2.365,15.013,8.995l20.006,79.815
					C3353.032,1502.441,3349.005,1509.162,3342.375,1510.824z"/>
				<g>
					<polygon style="fill:#F9C067;" points="3013.332,1633.311 2916.414,1657.605 2918.177,1587.05 2978.497,1571.931 					"/>
					<polygon style="fill:#F9C067;" points="3123.805,1605.62 3026.887,1629.914 3028.65,1559.359 3088.97,1544.239 					"/>
					<polygon style="fill:#F9C067;" points="3052.146,1553.47 2955.228,1577.763 2956.991,1507.209 3017.311,1492.089 					"/>
					<polygon style="fill:#F9C067;" points="3169.283,1524.108 3072.365,1548.402 3074.129,1477.847 3134.448,1462.727 					"/>
					<polygon style="fill:#F9C067;" points="3090.734,1473.685 2993.816,1497.979 2995.58,1427.424 3055.899,1412.304 					"/>
					<polygon style="fill:#F9C067;" points="3234.278,1577.929 3137.36,1602.222 3139.124,1531.668 3199.443,1516.548 					"/>
				</g>
				<path style="fill:#52D1BD;" d="M3320.831,1859.526l-349.317,87.56c-5.862,1.469-11.861-2.125-13.331-7.987l-32.76-130.695
					c-1.469-5.862,2.125-11.861,7.987-13.331l349.317-87.56c5.862-1.469,11.861,2.125,13.331,7.987l32.76,130.695
					C3330.287,1852.058,3326.693,1858.057,3320.831,1859.526z"/>
				<path style="fill:#ECF3FE;" d="M3370.833,2059.01l-349.317,87.56c-5.862,1.469-11.861-2.125-13.331-7.987l-32.76-130.695
					c-1.469-5.862,2.125-11.861,7.987-13.331l349.317-87.56c5.862-1.469,11.861,2.125,13.33,7.987l32.76,130.695
					C3380.29,2051.541,3376.696,2057.54,3370.833,2059.01z"/>
				<g>
					<path style="fill:#52D1BD;" d="M3112.435,2021.298l-13.301,8.497c-3.402-5.274-8.253-7.122-14.578-5.536
						c-6.743,1.69-9.567,4.724-8.469,9.101c0.437,1.744,1.439,3.062,3.006,3.955c1.558,0.896,4.677,1.229,9.339,1.006
						c7.805-0.359,13.62-0.209,17.456,0.456c3.826,0.667,7.354,2.402,10.563,5.21c3.218,2.805,5.354,6.307,6.406,10.507
						c1.648,6.574,0.54,12.904-3.318,18.977c-3.867,6.075-10.773,10.359-20.728,12.855c-7.464,1.871-14.251,1.766-20.343-0.319
						c-6.101-2.083-10.817-6.262-14.167-12.533l14.904-7.537c3.483,6.351,9.263,8.514,17.368,6.482
						c3.906-0.979,6.625-2.464,8.167-4.458c1.534-1.992,2.042-4.039,1.516-6.138c-0.535-2.135-1.822-3.571-3.86-4.309
						c-2.029-0.739-5.669-1-10.9-0.785c-9.76,0.404-17.031-0.572-21.804-2.903c-4.775-2.339-7.97-6.711-9.575-13.116
						c-1.623-6.477-0.635-12.53,2.956-18.158c3.6-5.63,9.43-9.455,17.5-11.478
						C3094.858,2007.493,3105.479,2010.901,3112.435,2021.298z"/>
					<path style="fill:#52D1BD;" d="M3177.075,2002.826l-34.696,8.697l3.746,14.946l27.276-6.837l3.439,13.718l-27.276,6.837
						l3.987,15.907l34.696-8.697l3.613,14.412l-52.044,13.045l-18.263-72.861l52.044-13.045L3177.075,2002.826z"/>
					<path style="fill:#52D1BD;" d="M3215.79,2040.493l28.985-7.265l3.613,14.412l-46.279,11.6l-18.264-72.861l17.295-4.335
						L3215.79,2040.493z"/>
					<path style="fill:#52D1BD;" d="M3270.823,2026.698l28.985-7.265l3.613,14.412l-46.279,11.6l-18.264-72.862l17.295-4.335
						L3270.823,2026.698z"/>
				</g>
				<g>
					<path style="fill:#FFFFFF;" d="M3018.38,1814.475l34.611-8.676c6.204-1.555,11.057-1.962,14.559-1.22s6.624,2.273,9.362,4.584
						c2.741,2.32,4.621,5.512,5.637,9.567c2.064,8.235-1.023,14.841-9.256,19.836c5.443-0.13,9.884,1.205,13.326,4.015
						c3.44,2.801,5.669,6.233,6.688,10.296c1.394,5.56,0.492,10.885-2.7,15.994c-3.195,5.1-9.526,8.837-18.995,11.21l-34.611,8.675
						L3018.38,1814.475z M3039.027,1823.238l4.079,16.271l13.169-3.301c4.825-1.209,7.625-2.923,8.399-5.142s0.943-4.198,0.507-5.94
						c-0.473-1.887-1.397-3.38-2.772-4.482s-2.722-1.67-4.042-1.705c-1.32-0.035-3.794,0.401-7.422,1.311L3039.027,1823.238z
						 M3046.42,1852.734l4.488,17.904l13.36-3.349c4.562-1.144,7.582-2.749,9.068-4.818c1.477-2.067,1.861-4.535,1.143-7.401
						c-0.6-2.394-2.025-4.235-4.267-5.524c-2.25-1.287-5.471-1.405-9.67-0.352L3046.42,1852.734z"/>
					<path style="fill:#FFFFFF;" d="M3149.53,1781.6l11.595,46.256c1.873,7.474,2.414,13.247,1.623,17.321
						s-3.188,7.856-7.191,11.346c-4.003,3.49-9.578,6.131-16.725,7.923s-13.098,2.165-17.852,1.12
						c-4.754-1.045-8.67-3.244-11.747-6.599c-3.077-3.354-5.552-8.768-7.426-16.242l-11.595-46.256l18.884-4.733l11.595,46.256
						c1,3.991,2.073,6.845,3.217,8.564c1.144,1.718,2.862,2.878,5.152,3.48c2.291,0.602,4.906,0.534,7.844-0.202
						c3.265-0.818,5.786-2.029,7.563-3.631s2.776-3.385,2.997-5.349c0.221-1.964-0.196-5.05-1.251-9.259l-11.595-46.256
						L3149.53,1781.6z"/>
					<path style="fill:#FFFFFF;" d="M3216.956,1764.7l-12.57,48.843l7.844,31.291l-17.36,4.351l-7.843-31.291l-34.122-37.139
						l20.189-5.061l21.208,24.577l7.054-31.661L3216.956,1764.7z"/>
				</g>
			</g>
			<path style="opacity:0.2;fill:#3A7EC1;" d="M3293.174,2365.692c-34.374-121.74-160.928-192.562-282.666-158.185
				c-121.738,34.371-192.559,160.925-158.185,282.665c34.374,121.735,160.927,192.557,282.665,158.185
				C3256.727,2613.981,3327.548,2487.427,3293.174,2365.692z"/>
			<g>
				
					<ellipse transform="matrix(0.7071 -0.7071 0.7071 0.7071 -803.4066 2866.1819)" style="fill:#F9C067;" cx="3058.084" cy="2402.888" rx="229.044" ry="229.044"/>
				<g>
					<path style="fill:#FFFFFF;" d="M3135.367,2303.784l-46.087,31.404c-12.558-18.275-29.91-24.29-52.061-18.036
						c-23.651,6.678-33.303,17.685-28.969,33.033c1.726,6.114,5.402,10.663,11.021,13.659s16.655,3.856,33.109,2.58
						c27.518-2.096,48.08-2.167,61.676-0.22c13.598,1.956,26.224,7.711,37.876,17.285c11.644,9.576,19.55,21.715,23.707,36.437
						c6.515,23.074,3.268,45.534-9.74,67.39s-36.962,37.706-71.862,47.561c-26.17,7.39-50.133,7.72-71.885,0.998
						c-21.742-6.716-38.857-20.975-51.338-42.78l51.849-28.18c12.956,22.078,33.623,29.098,62.008,21.083
						c13.695-3.867,23.153-9.396,28.386-16.6c5.218-7.199,6.792-14.478,4.715-21.835c-2.114-7.485-6.8-12.425-14.07-14.825
						c-7.268-2.392-20.129-2.936-38.592-1.629c-34.414,2.432-60.19-0.226-77.307-7.988c-17.123-7.752-28.857-22.864-35.196-45.312
						c-6.411-22.705-3.561-44.178,8.547-64.437c12.117-20.253,32.315-34.376,60.604-42.363
						C3071.858,2256.861,3109.724,2267.79,3135.367,2303.784z"/>
				</g>
			</g>
		</g>
		<circle style="fill:#3A7EC1;" cx="822.287" cy="2796.764" r="70.313"/>
		
			<ellipse transform="matrix(0.1602 -0.9871 0.9871 0.1602 1286.662 3336.2415)" style="fill:#3A7EC1;" cx="2603.972" cy="911.976" rx="38.974" ry="38.974"/>
		<circle style="fill:#3A7EC1;" cx="3133.561" cy="2813.02" r="38.974"/>
	</g>
</g>
</svg>
